# xmcd
#
# Track frame offsets:
# 150
# 12745
# 22602
# 42132
# 54655
# 63955
# 75442
# 86245
# 100775
# 122805
# 146860
# 162007
# 177767
# 195150
# 215367
# 225770
#
# Disc length: 3359 seconds
#
#
# Revision: 0
# Processed by: cddbd v1.5.1PL0 Copyright (c) Steve Scherf et al.
# Submitted via: FreeRIP 2.35 
#
DISCID=bf0d1d10
DTITLE=Glen Campell - Live
DYEAR=1998
DGENRE=Country
TTITLE0=Rhinestone Cowboy
TTITLE1=Gentle On My Mind
TTITLE2=Medley: Wichita Lineman - Galvaston - Country Boy
TTITLE3=By The Time I Get To Phoenix
TTITLE4=Dreams Of The Everyday Housewife
TTITLE5=Heartache Number Three
TTITLE6=It's Only Make Believe
TTITLE7=Crying
TTITLE8=Bluegrass Medley
TTITLE9=Milk Cow Blues
TTITLE10=Rollin' (In My Sweet Baby's Arms)
TTITLE11=I'm So Lonesome I Could Cry
TTITLE12=Southern Nights
TTITLE13=Amazing Grace
TTITLE14=Try A Little Kindness
TTITLE15=Mull Of Kintyre
EXTD=
EXTT0=
EXTT1=
EXTT2=
EXTT3=
EXTT4=
EXTT5=
EXTT6=
EXTT7=
EXTT8=
EXTT9=
EXTT10=
EXTT11=
EXTT12=
EXTT13=
EXTT14=
EXTT15=
PLAYORDER=
